<svg width="3380" height="1344" xmlns="http://www.w3.org/2000/svg" xmlns:xlink="http://www.w3.org/1999/xlink" xml:space="preserve" overflow="hidden"><g transform="translate(-492 -976)"><path d="M492.5 1634.5 3868.4 1634.5" stroke="#000000" stroke-width="6.875" stroke-miterlimit="8" fill="none" fill-rule="evenodd"/><path d="M711.5 1109.5C711.5 1037.7 769.703 979.5 841.5 979.5 913.297 979.5 971.5 1037.7 971.5 1109.5 971.5 1181.3 913.297 1239.5 841.5 1239.5 769.703 1239.5 711.5 1181.3 711.5 1109.5Z" stroke="#042433" stroke-width="6.875" stroke-miterlimit="8" fill="#156082" fill-rule="evenodd"/><path d="M1365.5 1504.5C1365.5 1432.7 1423.7 1374.5 1495.5 1374.5 1567.3 1374.5 1625.5 1432.7 1625.5 1504.5 1625.5 1576.3 1567.3 1634.5 1495.5 1634.5 1423.7 1634.5 1365.5 1576.3 1365.5 1504.5Z" stroke="#042433" stroke-width="6.875" stroke-miterlimit="8" fill="#156082" fill-rule="evenodd"/><path d="M2019.5 1530C2019.5 1472.84 2077.7 1426.5 2149.5 1426.5 2221.3 1426.5 2279.5 1472.84 2279.5 1530 2279.5 1587.16 2221.3 1633.5 2149.5 1633.5 2077.7 1633.5 2019.5 1587.16 2019.5 1530Z" stroke="#042433" stroke-width="6.875" stroke-miterlimit="8" fill="#156082" fill-rule="evenodd"/><path d="M2674.5 1504C2674.5 1432.48 2732.7 1374.5 2804.5 1374.5 2876.3 1374.5 2934.5 1432.48 2934.5 1504 2934.5 1575.52 2876.3 1633.5 2804.5 1633.5 2732.7 1633.5 2674.5 1575.52 2674.5 1504Z" stroke="#042433" stroke-width="6.875" stroke-miterlimit="8" fill="#156082" fill-rule="evenodd"/><path d="M3328.5 1296.5C3328.5 1224.7 3386.7 1166.5 3458.5 1166.5 3530.3 1166.5 3588.5 1224.7 3588.5 1296.5 3588.5 1368.3 3530.3 1426.5 3458.5 1426.5 3386.7 1426.5 3328.5 1368.3 3328.5 1296.5Z" stroke="#042433" stroke-width="6.875" stroke-miterlimit="8" fill="#156082" fill-rule="evenodd"/><path d="M848.938 1277.5 848.938 1376.68 842.063 1376.68 842.063 1277.5ZM859.25 1372.1 845.5 1399.6 831.75 1372.1Z" fill="#196B24"/><path d="M1494.94 1708.5 1494.94 1807.68 1488.06 1807.68 1488.06 1708.5ZM1505.25 1803.1 1491.5 1830.6 1477.75 1803.1Z" fill="#196B24"/><path d="M3.4375-1.01603e-05 3.43779 99.1833-3.43721 99.1833-3.4375 1.01603e-05ZM13.7503 94.6 0.000360892 122.1-13.7497 94.6Z" fill="#196B24" transform="matrix(1 0 0 -1 2800.5 1356.6)"/><path d="M3.4375-1.01603e-05 3.43779 99.1833-3.43721 99.1833-3.4375 1.01603e-05ZM13.7503 94.6 0.000360892 122.1-13.7497 94.6Z" fill="#196B24" transform="matrix(1 0 0 -1 3455.5 1134.6)"/><text font-family="Aptos,Aptos_MSFontService,sans-serif" font-weight="400" font-size="64" transform="matrix(1 0 0 1 585.754 1955)">Gravity pulls the </text><text font-family="Aptos,Aptos_MSFontService,sans-serif" font-weight="400" font-size="64" transform="matrix(1 0 0 1 585.754 2032)">ball downward.</text><text font-family="Aptos,Aptos_MSFontService,sans-serif" font-weight="400" font-size="64" transform="matrix(1 0 0 1 1238.96 1955)">The ball hits</text><text font-family="Aptos,Aptos_MSFontService,sans-serif" font-weight="400" font-size="64" transform="matrix(1 0 0 1 1584.75 1955)">the</text><text font-family="Aptos,Aptos_MSFontService,sans-serif" font-weight="400" font-size="64" transform="matrix(1 0 0 1 1238.96 2032)">ground</text><text font-family="Aptos,Aptos_MSFontService,sans-serif" font-weight="400" font-size="64" transform="matrix(1 0 0 1 1446.63 2032)">but</text><text font-family="Aptos,Aptos_MSFontService,sans-serif" font-weight="400" font-size="64" transform="matrix(1 0 0 1 1552.62 2032)">still</text><text font-family="Aptos,Aptos_MSFontService,sans-serif" font-weight="400" font-size="64" transform="matrix(1 0 0 1 1238.96 2109)">wants</text><text font-family="Aptos,Aptos_MSFontService,sans-serif" font-weight="400" font-size="64" transform="matrix(1 0 0 1 1419.52 2109)">to</text><text font-family="Aptos,Aptos_MSFontService,sans-serif" font-weight="400" font-size="64" transform="matrix(1 0 0 1 1488.53 2109)">move</text><text font-family="Aptos,Aptos_MSFontService,sans-serif" font-weight="400" font-size="64" transform="matrix(1 0 0 1 1238.96 2186)">downwards.</text><text font-family="Aptos,Aptos_MSFontService,sans-serif" font-weight="400" font-size="64" transform="matrix(1 0 0 1 1892.17 1955)">The ball gets </text><text font-family="Aptos,Aptos_MSFontService,sans-serif" font-weight="400" font-size="64" transform="matrix(1 0 0 1 1892.17 2032)">squished until it </text><text font-family="Aptos,Aptos_MSFontService,sans-serif" font-weight="400" font-size="64" transform="matrix(1 0 0 1 1892.17 2109)">reaches its </text><text font-family="Aptos,Aptos_MSFontService,sans-serif" font-weight="400" font-size="64" transform="matrix(1 0 0 1 1892.17 2186)">maximum change </text><text font-family="Aptos,Aptos_MSFontService,sans-serif" font-weight="400" font-size="64" transform="matrix(1 0 0 1 1892.17 2263)">in shape.</text><text font-family="Aptos,Aptos_MSFontService,sans-serif" font-weight="400" font-size="64" transform="matrix(1 0 0 1 2545.38 1955)">The ball then </text><text font-family="Aptos,Aptos_MSFontService,sans-serif" font-weight="400" font-size="64" transform="matrix(1 0 0 1 2545.38 2032)">returns to its </text><text font-family="Aptos,Aptos_MSFontService,sans-serif" font-weight="400" font-size="64" transform="matrix(1 0 0 1 2545.38 2109)">normal shape.</text><text font-family="Aptos,Aptos_MSFontService,sans-serif" font-weight="400" font-size="64" transform="matrix(1 0 0 1 3198.59 1955)">The ball is then </text><text font-family="Aptos,Aptos_MSFontService,sans-serif" font-weight="400" font-size="64" transform="matrix(1 0 0 1 3198.59 2032)">bouncing </text><text font-family="Aptos,Aptos_MSFontService,sans-serif" font-weight="400" font-size="64" transform="matrix(1 0 0 1 3198.59 2109)">upwards.</text></g></svg>